<svg width="20" height="16" viewBox="0 0 20 16" fill="none" xmlns="http://www.w3.org/2000/svg">
<path d="M12.3306 0.337098L19.1852 7.19172C19.2917 7.29786 19.3762 7.42398 19.4339 7.56284C19.4916 7.70171 19.5212 7.85059 19.5212 8.00095C19.5212 8.15131 19.4916 8.30019 19.4339 8.43906C19.3762 8.57793 19.2917 8.70404 19.1852 8.81018L12.3306 15.6648C12.116 15.8794 11.8249 16 11.5214 16C11.2179 16 10.9268 15.8794 10.7121 15.6648C10.4975 15.4502 10.377 15.1591 10.377 14.8556C10.377 14.5521 10.4975 14.261 10.7121 14.0464L15.6161 9.14244L1.6212 9.14244C1.3182 9.14244 1.02762 9.02208 0.813372 8.80783C0.599123 8.59358 0.478759 8.30299 0.478759 8C0.478759 7.69701 0.599123 7.40642 0.813372 7.19218C1.02762 6.97793 1.3182 6.85756 1.6212 6.85756L15.6161 6.85756L10.7112 1.95365C10.4966 1.73903 10.376 1.44794 10.376 1.14442C10.376 0.840903 10.4966 0.549816 10.7112 0.335195C10.9258 0.120574 11.2169 -4.69379e-07 11.5204 -4.82646e-07C11.8239 -4.95914e-07 12.115 0.120574 12.3296 0.335195L12.3306 0.337098Z" fill="black"/>
</svg>
