<svg width="12" height="12" viewBox="0 0 12 12" fill="none" xmlns="http://www.w3.org/2000/svg">
<path d="M11 12C10.7348 12 10.4804 11.8946 10.2929 11.7071C10.1054 11.5196 10 11.2652 10 11V2H1C0.734784 2 0.48043 1.89464 0.292893 1.70711C0.105357 1.51957 0 1.26522 0 1C0 0.734784 0.105357 0.48043 0.292893 0.292893C0.48043 0.105357 0.734784 0 1 0H11C11.2652 0 11.5196 0.105357 11.7071 0.292893C11.8946 0.48043 12 0.734784 12 1V11C12 11.2652 11.8946 11.5196 11.7071 11.7071C11.5196 11.8946 11.2652 12 11 12Z" fill="#141414"/>
<path d="M1.00003 11.9999C0.802281 11.9999 0.608983 11.9412 0.444573 11.8313C0.280163 11.7214 0.152023 11.5653 0.0763533 11.3826C0.000683263 11.1999 -0.01912 10.9988 0.0194476 10.8049C0.0580151 10.6109 0.153222 10.4328 0.293031 10.2929L10.293 0.292919C10.4816 0.110761 10.7342 0.00996641 10.9964 0.0122448C11.2586 0.0145233 11.5094 0.119692 11.6948 0.305101C11.8803 0.490509 11.9854 0.741321 11.9877 1.00352C11.99 1.26571 11.8892 1.51832 11.707 1.70692L1.70703 11.7069C1.61429 11.7999 1.50409 11.8737 1.38276 11.924C1.26144 11.9742 1.13137 12.0001 1.00003 11.9999Z" fill="#141414"/>
</svg>
