<svg width="24" height="24" viewBox="0 0 24 24" fill="none" xmlns="http://www.w3.org/2000/svg">
<path d="M20 9.6864V16.2C20 16.8641 19.746 17.5031 19.2899 17.9858C18.8338 18.4685 18.2102 18.7584 17.5472 18.796L17.4 18.8H6.6C5.93589 18.8 5.29694 18.546 4.81422 18.0899C4.33149 17.6338 4.0416 17.0102 4.004 16.3472L4 16.2V9.6864L11.7216 13.7312C11.8075 13.7762 11.903 13.7997 12 13.7997C12.097 13.7997 12.1925 13.7762 12.2784 13.7312L20 9.6864ZM6.6 6H17.4C18.0445 5.99992 18.666 6.2392 19.144 6.67141C19.6221 7.10363 19.9226 7.69799 19.9872 8.3392L12 12.5232L4.0128 8.3392C4.07482 7.72345 4.35444 7.15001 4.8014 6.72197C5.24836 6.29393 5.83335 6.03935 6.4512 6.004L6.6 6Z" fill="#141414"/>
</svg>
