<svg width="35" height="23" viewBox="0 0 35 23" fill="none" xmlns="http://www.w3.org/2000/svg">
<path d="M0.016 22V0.879999H7.728L12.976 16.048H13.136L18.256 0.879999H25.616V22H20.72L20.976 6.128H20.656L14.864 22H10.576L4.88 6.128H4.56L4.816 22H0.016ZM31.593 22.416C30.505 22.416 29.6837 22.1813 29.129 21.712C28.5957 21.2427 28.329 20.5173 28.329 19.536C28.329 18.5333 28.5957 17.7973 29.129 17.328C29.6837 16.8587 30.505 16.624 31.593 16.624C32.7237 16.624 33.5663 16.8587 34.121 17.328C34.6757 17.7973 34.953 18.5333 34.953 19.536C34.953 21.456 33.833 22.416 31.593 22.416Z" fill="#0F0F0F"/>
</svg>
