<svg width="81" height="96" viewBox="0 0 81 96" fill="none" xmlns="http://www.w3.org/2000/svg">
<g clip-path="url(#clip0_2082_166)">
<path d="M78.9623 59.7494L44.4057 94.306C43.8706 94.843 43.2348 95.269 42.5347 95.5597C41.8347 95.8504 41.0841 96 40.3261 96C39.568 96 38.8175 95.8504 38.1174 95.5597C37.4173 95.269 36.7815 94.843 36.2465 94.306L1.68983 59.7494C0.60785 58.6674 -1.61227e-08 57.1999 0 55.6698C1.61227e-08 54.1396 0.60785 52.6722 1.68983 51.5902C2.77181 50.5082 4.23928 49.9004 5.76943 49.9004C7.29958 49.9004 8.76705 50.5082 9.84903 51.5902L34.5714 76.3126V5.75944C34.5714 4.23194 35.1782 2.76701 36.2583 1.6869C37.3384 0.606797 38.8034 0 40.3309 0C41.8584 0 43.3233 0.606797 44.4034 1.6869C45.4835 2.76701 46.0903 4.23194 46.0903 5.75944V76.3126L70.8127 51.5854C71.8947 50.5034 73.3621 49.8955 74.8923 49.8955C76.4224 49.8955 77.8899 50.5034 78.9719 51.5854C80.0539 52.6674 80.6617 54.1348 80.6617 55.665C80.6617 57.1951 80.0539 58.6626 78.9719 59.7446L78.9623 59.7494Z" fill="black"/>
</g>
<defs>
<clipPath id="clip0_2082_166">
<rect width="80.6617" height="96" fill="white"/>
</clipPath>
</defs>
</svg>
