<svg width="20" height="16" viewBox="0 0 20 16" fill="none" xmlns="http://www.w3.org/2000/svg">
<path d="M7.6694 15.6629L0.814771 8.80827C0.708267 8.70214 0.62376 8.57602 0.566099 8.43715C0.508438 8.29829 0.478756 8.14941 0.478756 7.99905C0.478756 7.84869 0.508438 7.6998 0.566099 7.56094C0.62376 7.42207 0.708267 7.29596 0.814771 7.18982L7.6694 0.335192C7.88402 0.120572 8.17511 -4.99153e-07 8.47863 -4.82688e-07C8.78214 -4.66223e-07 9.07323 0.120572 9.28785 0.335192C9.50247 0.549813 9.62304 0.8409 9.62304 1.14442C9.62304 1.44794 9.50247 1.73903 9.28785 1.95365L4.38394 6.85756L18.3788 6.85756C18.6818 6.85756 18.9724 6.97792 19.1866 7.19217C19.4009 7.40642 19.5212 7.69701 19.5212 8C19.5212 8.30299 19.4009 8.59358 19.1866 8.80782C18.9724 9.02207 18.6818 9.14244 18.3788 9.14244L4.38394 9.14244L9.28881 14.0464C9.50342 14.261 9.624 14.5521 9.624 14.8556C9.624 15.1591 9.50342 15.4502 9.28881 15.6648C9.07418 15.8794 8.7831 16 8.47958 16C8.17606 16 7.88497 15.8794 7.67035 15.6648L7.6694 15.6629Z" fill="black"/>
</svg>
