<svg width="24" height="24" viewBox="0 0 24 24" fill="none" xmlns="http://www.w3.org/2000/svg">
<path d="M14.8818 3.12922C13.0873 2.71226 11.2212 2.71226 9.42678 3.12922C8.39039 2.49359 7.59916 2.20146 7.02371 2.07815C6.77811 2.02272 6.5268 1.99661 6.27504 2.00035C6.16049 2.00346 6.04648 2.01722 5.93448 2.04146L5.9198 2.04439L5.91392 2.04733H5.90952L6.11063 2.75342L5.90952 2.0488C5.80639 2.07794 5.71089 2.12931 5.62974 2.19931C5.54858 2.2693 5.48374 2.35622 5.43977 2.45396C5.00668 3.42386 4.92417 4.51413 5.20636 5.53816C4.47551 6.42388 4.07723 7.53719 4.08043 8.6855C4.08043 10.9653 4.75276 12.4978 5.89924 13.4828C6.70222 14.1728 7.67696 14.5398 8.65463 14.7497C8.50077 15.2015 8.44278 15.6805 8.48434 16.156V17.0339C7.88688 17.1586 7.47291 17.119 7.17785 17.0221C6.80939 16.9003 6.52607 16.6551 6.25449 16.3028C6.11253 16.1129 5.98024 15.9159 5.85814 15.7127L5.77447 15.5762C5.66881 15.4005 5.55917 15.2272 5.44564 15.0565C5.16673 14.644 4.75276 14.1273 4.08336 13.9511L3.37286 13.7647L3 15.1857L3.7105 15.3721C3.82794 15.4015 3.9806 15.5116 4.23163 15.88C4.32825 16.0255 4.42125 16.1733 4.51054 16.3234L4.61036 16.4848C4.74835 16.708 4.9069 16.9546 5.09039 17.1953C5.46179 17.6798 5.96824 18.1686 6.71984 18.4167C7.23363 18.587 7.81788 18.6281 8.48434 18.5253V21.266C8.48434 21.4607 8.56167 21.6474 8.69932 21.785C8.83697 21.9227 9.02366 22 9.21833 22H15.0902C15.2849 22 15.4716 21.9227 15.6092 21.785C15.7469 21.6474 15.8242 21.4607 15.8242 21.266V16.0371C15.8242 15.5732 15.8036 15.149 15.673 14.7541C16.6463 14.5486 17.6137 14.1816 18.4122 13.4916C19.5573 12.4993 20.2281 10.952 20.2281 8.65907V8.6576C20.2244 7.51869 19.826 6.41629 19.1007 5.53816C19.3826 4.51459 19.3 3.42489 18.8673 2.45542C18.8237 2.35757 18.7591 2.27047 18.6782 2.20022C18.5973 2.12997 18.502 2.07829 18.399 2.0488L18.1979 2.75342C18.399 2.0488 18.3976 2.0488 18.3961 2.0488L18.3932 2.04733L18.3873 2.04439L18.3741 2.04146C18.3378 2.03203 18.3011 2.02468 18.264 2.01944C18.1871 2.00822 18.1097 2.00184 18.032 2.00035C17.7803 1.99664 17.529 2.02275 17.2834 2.07815C16.7094 2.20146 15.9182 2.49359 14.8818 3.12922Z" fill="#141414"/>
</svg>
